{"title":"The Big Lion Gajakesari (2015) Hindi Dubbed Dth Rip - XviD - [1-","uid":11970011,"size":1596279637,"categoryP":"video","categoryS":"other","magnet":"?xt=urn:btih:f1169c4ed27e69f7b85423c724061e8bc556767e&amp;dn=The+Big+Lion+Gajakesari+%282015%29+Hindi+Dubbed+Dth+Rip+-+XviD+-+%5B1-&amp;tr=udp%3A%2F%2Ftracker.openbittorrent.com%3A80&amp;tr=udp%3A%2F%2Fopen.demonii.com%3A1337&amp;tr=udp%3A%2F%2Ftracker.coppersurfer.tk%3A6969&amp;tr=udp%3A%2F%2Fexodus.desync.com%3A6969","seeders":2,"leechers":3,"uploader":"SS132203","files":3,"time":1432792204,"description":"The Big Lion Gajakesari (2015) Hindi Dubbed Dth Rip - XviD - [1-3] - Team IcTv Exclusive \n &lt;a href=&quot;\nhttp://imgsparrow.co/image/47&quot; rel=&quot;nofollow&quot; target=&quot;_NEW&quot;&gt;\nhttp://imgsparrow.co/image/47&lt;/a&gt;\n &lt;a href=&quot;\nhttp://imgsparrow.co/image/Dk&quot; rel=&quot;nofollow&quot; target=&quot;_NEW&quot;&gt;\nhttp://imgsparrow.co/image/Dk&lt;/a&gt;\n &lt;a href=&quot;\nhttp://imgsparrow.co/image/9B&quot; rel=&quot;nofollow&quot; target=&quot;_NEW&quot;&gt;\nhttp://imgsparrow.co/image/9B&lt;/a&gt;\n\nInfo : - \n\nAll Credit Goes To Intellect Clever &amp; IcTv\nSample Within Torrent\n\nYear : 2015\nCast : Yash, Amoolya, Anant Nag\nVideo: XviD\nAudio : MP3\nGenre : Action\nSubtitles : None\nResolution : 720 x 304\nRuntime : 1hr 56min\nSource : Team IcTv\n\nFormat                      : AVI\nFormat/Info                 : Audio Video Interleave\nFile size                   : 1.46 GiB\nDuration                    : 1h 56mn\nOverall bit rate            : 1 798 Kbps\n\nVideo\nID                          : 0\nFormat                      : MPEG-4 Visual\nFormat profile              : Advanced Simple@L5\nFormat settings, BVOP       : 2\nFormat settings, QPel       : No\nFormat settings, GMC        : No warppoints\nFormat settings, Matrix     : Default (H.263)\nCodec ID                    : XVID\nCodec ID/Hint               : XviD\nDuration                    : 1h 56mn\nBit rate                    : 1 663 Kbps\nWidth                       : 720 pixels\nHeight                      : 304 pixels\nDisplay aspect ratio        : 2.35:1\nFrame rate                  : 29.970 fps\nColor space                 : YUV\nChroma subsampling          : 4:2:0\nBit depth                   : 8 bits\nScan type                   : Progressive\nCompression mode            : Lossy\nBits/(Pixel*Frame)          : 0.253\nStream size                 : 1.35 GiB (92%)\n\nAudio\nID                          : 1\nFormat                      : MPEG Audio\nFormat version              : Version 1\nFormat profile              : Layer 3\nMode                        : Joint stereo\nMode extension              : MS Stereo\nCodec ID                    : 55\nCodec ID/Hint               : MP3\nDuration                    : 1h 56mn\nBit rate mode               : Constant\nBit rate                    : 128 Kbps\nChannel(s)                  : 2 channels\nSampling rate               : 48.0 KHz\nCompression mode            : Lossy\nStream size                 : 107 MiB (7%)\n\nScreens : - \n &lt;a href=&quot;\nhttp://imgsparrow.co/image/Dn&quot; rel=&quot;nofollow&quot; target=&quot;_NEW&quot;&gt;\nhttp://imgsparrow.co/image/Dn&lt;/a&gt; &lt;a href=&quot;\nhttp://imgsparrow.co/image/Dy&quot; rel=&quot;nofollow&quot; target=&quot;_NEW&quot;&gt;\nhttp://imgsparrow.co/image/Dy&lt;/a&gt; &lt;a href=&quot;\nhttp://imgsparrow.co/image/D5&quot; rel=&quot;nofollow&quot; target=&quot;_NEW&quot;&gt;\nhttp://imgsparrow.co/image/D5&lt;/a&gt; &lt;a href=&quot;\nhttp://imgsparrow.co/image/DA&quot; rel=&quot;nofollow&quot; target=&quot;_NEW&quot;&gt;\nhttp://imgsparrow.co/image/DA&lt;/a&gt; &lt;a href=&quot;\nhttp://imgsparrow.co/image/DQ&quot; rel=&quot;nofollow&quot; target=&quot;_NEW&quot;&gt;\nhttp://imgsparrow.co/image/DQ&lt;/a&gt; &lt;a href=&quot;\nhttp://imgsparrow.co/image/DZ&quot; rel=&quot;nofollow&quot; target=&quot;_NEW&quot;&gt;\nhttp://imgsparrow.co/image/DZ&lt;/a&gt; &lt;a href=&quot;\nhttp://imgsparrow.co/image/Da&quot; rel=&quot;nofollow&quot; target=&quot;_NEW&quot;&gt;\nhttp://imgsparrow.co/image/Da&lt;/a&gt; &lt;a href=&quot;\nhttp://imgsparrow.co/image/Df&quot; rel=&quot;nofollow&quot; target=&quot;_NEW&quot;&gt;\nhttp://imgsparrow.co/image/Df&lt;/a&gt; &lt;a href=&quot;\nhttp://imgsparrow.co/image/DI&quot; rel=&quot;nofollow&quot; target=&quot;_NEW&quot;&gt;\nhttp://imgsparrow.co/image/DI&lt;/a&gt; &lt;a href=&quot;\nhttp://imgsparrow.co/image/DP&quot; rel=&quot;nofollow&quot; target=&quot;_NEW&quot;&gt;\nhttp://imgsparrow.co/image/DP&lt;/a&gt;\n &lt;a href=&quot;\nhttp://imgsparrow.co/image/N2&quot; rel=&quot;nofollow&quot; target=&quot;_NEW&quot;&gt;\nhttp://imgsparrow.co/image/N2&lt;/a&gt;","torrent":{"xt":"urn:btih:f1169c4ed27e69f7b85423c724061e8bc556767e","amp;dn":"The+Big+Lion+Gajakesari+%282015%29+Hindi+Dubbed+Dth+Rip+-+XviD+-+%5B1-","amp;tr":["udp%3A%2F%2Ftracker.openbittorrent.com%3A80","udp%3A%2F%2Fopen.demonii.com%3A1337","udp%3A%2F%2Ftracker.coppersurfer.tk%3A6969","udp%3A%2F%2Fexodus.desync.com%3A6969"],"infoHash":"f1169c4ed27e69f7b85423c724061e8bc556767e","infoHashBuffer":{"type":"Buffer","data":[241,22,156,78,210,126,105,247,184,84,35,199,36,6,30,139,197,86,118,126]},"announce":[],"urlList":[]}}